<?xml version="1.0" standalone="no"?>
<!DOCTYPE svg PUBLIC "-//W3C//DTD SVG 20010904//EN"
 "http://www.w3.org/TR/2001/REC-SVG-20010904/DTD/svg10.dtd">
<svg version="1.0" xmlns="http://www.w3.org/2000/svg"
 width="1024.000000pt" height="1024.000000pt" viewBox="0 0 1024.000000 1024.000000"
 preserveAspectRatio="xMidYMid meet">

<g transform="translate(0.000000,1024.000000) scale(0.100000,-0.100000)"
fill="#000000" stroke="none">
<path d="M5048 8860 c-134 -28 -282 -103 -368 -186 -118 -113 -194 -244 -245
-418 -52 -182 -43 -340 31 -539 42 -112 46 -137 23 -137 -22 0 -212 -76 -344
-137 -169 -79 -259 -130 -320 -183 -26 -23 -52 -37 -58 -33 -38 21 -101 76
-168 145 -74 77 -75 78 -56 95 36 32 77 106 77 139 0 39 -44 101 -134 189 -71
70 -117 94 -191 102 -80 8 -119 -16 -311 -195 -303 -283 -404 -406 -404 -492
0 -21 13 -62 30 -96 34 -68 200 -259 233 -268 44 -12 94 -6 120 14 34 27 42
25 68 -12 12 -18 48 -60 81 -93 l58 -61 -103 -154 c-109 -163 -216 -356 -279
-503 -245 -567 -284 -1209 -107 -1764 90 -281 172 -458 312 -678 112 -177 230
-319 421 -510 278 -277 539 -445 943 -604 136 -54 419 -126 568 -146 155 -20
473 -20 630 0 439 56 890 233 1262 497 158 112 207 152 357 298 303 294 534
660 673 1065 84 248 122 459 130 725 5 168 3 217 -16 355 -26 183 -38 242 -88
415 -45 161 -117 344 -194 495 -95 187 -278 468 -315 482 -8 3 -14 10 -14 16
0 5 38 50 85 98 47 49 85 93 85 99 0 18 22 11 57 -20 45 -40 93 -40 154 -2 45
29 188 187 228 252 25 41 28 123 7 173 -7 18 -138 155 -298 313 -311 307 -315
310 -418 302 -68 -5 -131 -42 -219 -129 -125 -124 -139 -172 -71 -258 22 -28
40 -54 40 -58 0 -14 -225 -233 -239 -233 -8 0 -53 26 -100 58 -155 105 -348
199 -561 272 -52 17 -97 34 -98 35 -2 2 10 32 27 67 53 108 74 206 74 348 0
102 -5 143 -26 221 -78 297 -251 496 -521 600 -158 61 -337 75 -508 39z m440
-164 c97 -32 240 -124 306 -197 130 -145 209 -449 162 -624 -13 -50 -91 -233
-105 -248 -6 -6 -47 4 -169 39 -10 3 -7 12 11 33 13 16 37 69 53 117 25 78 29
103 28 199 -1 122 -18 182 -76 271 -155 237 -447 319 -689 193 -92 -48 -182
-137 -223 -221 -32 -65 -56 -173 -56 -253 0 -105 48 -237 110 -303 24 -25 28
-22 -71 -46 -36 -8 -73 -18 -83 -22 -13 -5 -25 11 -57 80 -96 205 -96 411 -2
641 33 79 46 100 117 171 96 96 176 143 301 179 80 22 105 24 225 21 113 -3
149 -8 218 -30z m-85 -334 c61 -27 166 -132 197 -196 44 -92 36 -228 -19 -335
-47 -94 -53 -82 -45 86 8 169 3 185 -54 211 -29 12 -72 16 -207 15 -94 0 -189
-6 -212 -12 -66 -18 -73 -36 -73 -181 0 -194 -12 -210 -70 -94 -34 66 -35 73
-35 179 0 96 3 115 24 154 34 65 116 147 175 176 47 24 59 25 161 22 86 -3
121 -8 158 -25z m-35 -519 l3 -143 -109 0 -109 0 -6 83 c-4 45 -7 108 -7 139
0 68 -2 67 130 65 l95 -2 3 -142z m1940 -117 c15 -8 111 -99 213 -203 297
-300 303 -308 257 -369 -35 -48 -111 -124 -123 -124 -21 0 -567 545 -564 561
6 23 151 149 172 149 10 0 30 -6 45 -14z m-4003 -6 c36 -14 125 -99 125 -120
0 -10 -46 -60 -102 -112 -180 -164 -175 -161 -221 -154 -23 4 -47 15 -54 26
-10 14 -26 20 -54 20 -22 0 -39 5 -39 11 0 8 -5 8 -15 -1 -8 -7 -15 -8 -15 -4
0 15 281 305 315 326 35 21 28 20 60 8z m2146 -196 c192 -18 311 -41 460 -89
60 -19 114 -35 120 -35 6 0 63 -21 127 -46 480 -189 938 -550 1203 -947 101
-151 243 -439 304 -617 47 -138 95 -352 116 -520 18 -140 15 -483 -4 -610 -25
-163 -61 -303 -118 -456 -130 -349 -319 -645 -578 -904 -154 -154 -243 -225
-285 -228 -24 -2 -26 0 -16 12 8 10 8 21 2 32 -6 11 -11 13 -16 5 -4 -6 -1
-11 6 -12 7 0 0 -5 -16 -9 -33 -10 -46 -6 -46 16 0 16 -17 19 -22 4 -2 -6 -28
-13 -58 -17 -30 -3 -61 -10 -68 -16 -10 -8 -16 -7 -21 2 -5 7 -32 14 -60 16
-57 3 -73 11 -51 25 8 6 11 10 6 10 -5 0 -2 8 5 17 10 11 10 14 2 9 -7 -4 -13
-5 -13 -3 0 2 51 42 112 88 123 92 362 322 450 435 189 239 342 542 407 804
57 228 73 545 38 776 -37 248 -133 531 -255 754 -106 193 -268 401 -451 578
-275 265 -678 478 -1051 556 -41 9 -155 24 -253 33 -150 14 -199 15 -315 6
-365 -31 -731 -160 -1047 -371 -273 -182 -548 -486 -719 -795 -105 -189 -207
-504 -241 -745 -22 -150 -22 -496 -1 -646 16 -110 65 -327 76 -336 3 -3 7 -14
7 -25 0 -11 4 -42 8 -69 8 -46 7 -48 -13 -41 -16 5 -22 2 -22 -9 0 -9 -8 -16
-20 -16 -13 0 -26 -14 -40 -39 -14 -29 -28 -41 -51 -46 -27 -6 -30 -10 -26
-34 3 -15 1 -33 -4 -41 -8 -12 -9 -11 -7 5 2 11 -2 19 -9 18 -7 -2 -10 3 -7
11 3 7 -2 16 -10 19 -9 4 -16 13 -16 21 0 8 -6 19 -14 23 -41 24 -131 312
-172 549 -24 137 -27 186 -27 354 1 498 92 847 334 1280 191 342 466 629 834
873 143 94 486 255 630 294 162 44 415 94 516 101 172 14 202 13 380 -4z
m-1921 -242 c45 -55 91 -94 124 -105 14 -5 -206 -202 -253 -226 -12 -7 -31 9
-84 71 -37 43 -70 85 -73 92 -3 7 34 55 81 107 101 110 124 131 140 127 7 -2
36 -31 65 -66z m3714 -117 c105 -118 136 -160 131 -175 -3 -10 -27 -29 -53
-41 -26 -12 -63 -33 -83 -45 -29 -18 -39 -20 -56 -10 -46 25 -253 221 -253
239 0 20 148 186 166 187 6 0 73 -70 148 -155z m-1725 -155 c87 -11 266 -54
372 -90 279 -94 681 -365 880 -593 244 -280 415 -621 488 -976 33 -161 31
-507 -4 -711 -27 -157 -93 -340 -192 -533 -183 -357 -544 -708 -925 -897 -492
-244 -1025 -275 -1553 -90 -217 76 -612 318 -567 348 8 6 0 15 -30 32 -45 25
-189 150 -252 219 -71 76 -106 150 -73 152 6 0 -1 5 -18 11 -42 15 -61 34 -95
94 -36 62 -36 64 -7 65 l22 2 -22 4 c-13 2 -23 8 -23 13 0 5 -14 25 -30 44
-40 45 -98 180 -113 259 -6 34 -17 67 -24 72 -18 13 -53 151 -42 162 5 5 -3
57 -17 118 -30 128 -46 407 -25 428 9 9 87 12 269 13 305 2 439 6 395 11 -18
2 -33 8 -33 14 0 5 -10 9 -22 9 -13 0 -34 3 -46 7 -18 4 -21 8 -10 15 9 7 5 8
-14 5 -18 -3 -28 0 -28 8 0 6 -7 12 -15 12 -8 0 -12 -4 -9 -9 3 -5 -58 -7
-143 -5 -107 2 -147 7 -145 15 1 7 -6 12 -15 13 -10 0 -46 2 -80 5 -50 4 -62
3 -58 -8 3 -7 -4 -19 -15 -26 -17 -11 -20 -10 -20 7 0 27 49 267 61 298 5 13
9 40 9 59 0 98 202 482 355 674 221 277 550 522 850 633 115 43 283 89 390
108 117 20 440 25 574 9z"/>
<path d="M5214 6850 c-38 -15 -54 -50 -54 -115 0 -80 15 -130 47 -155 35 -28
67 -25 104 8 29 26 32 35 37 105 6 95 -8 134 -54 153 -38 16 -50 16 -80 4z"/>
<path d="M5983 6525 c-136 -69 -189 -212 -134 -357 29 -75 98 -151 159 -175
65 -25 154 -22 214 6 71 34 143 116 163 186 37 127 -18 265 -133 332 -38 22
-61 28 -131 31 -77 3 -91 1 -138 -23z m186 -191 c47 -39 41 -113 -13 -156 -32
-26 -64 -22 -97 13 -23 24 -29 41 -29 74 0 88 73 125 139 69z"/>
<path d="M4253 6520 c-74 -30 -51 -141 51 -242 43 -41 74 -52 110 -38 77 29
77 172 -1 242 -44 40 -114 56 -160 38z"/>
<path d="M5126 6203 c-42 -6 -95 -45 -217 -159 -58 -55 -129 -120 -158 -147
-58 -53 -85 -103 -75 -145 19 -78 84 -130 148 -116 59 12 91 37 229 172 l137
135 158 -7 c286 -13 354 -27 302 -63 -52 -36 -556 -536 -579 -574 -32 -54 -39
-149 -17 -217 35 -106 142 -183 279 -202 34 -5 155 -7 270 -4 115 2 207 1 207
-4 0 -19 -139 -180 -296 -342 -91 -94 -172 -186 -180 -205 -28 -68 -11 -141
45 -188 39 -32 102 -36 142 -9 15 9 146 139 291 287 235 241 266 275 277 318
18 63 10 171 -17 222 -30 58 -102 125 -147 135 -20 5 -139 6 -263 3 -215 -5
-228 -5 -251 14 -21 17 -22 22 -11 44 7 13 69 83 139 155 191 198 294 311 318
352 30 49 30 120 1 181 -12 25 -63 88 -113 141 -49 52 -105 114 -123 137 -42
53 -64 60 -257 73 -83 6 -163 12 -180 14 -16 1 -43 1 -59 -1z"/>
<path d="M3712 6020 c-71 -43 -75 -134 -10 -197 63 -61 134 -53 162 18 31 77
10 151 -53 184 -40 20 -59 19 -99 -5z"/>
<path d="M6646 5999 c-45 -39 -55 -85 -31 -139 24 -54 47 -72 97 -77 54 -5 98
20 121 70 28 58 22 94 -22 138 -34 34 -45 39 -84 39 -37 0 -53 -6 -81 -31z"/>
<path d="M6374 5688 c-16 -11 -62 -53 -102 -92 -55 -54 -76 -68 -87 -61 -7 6
-39 30 -70 54 l-56 44 -42 -30 c-23 -17 -61 -40 -84 -52 -24 -12 -43 -28 -43
-37 0 -46 140 -232 204 -269 52 -31 118 -33 162 -6 17 10 97 84 177 163 133
130 147 147 147 178 0 102 -127 168 -206 108z"/>
<path d="M3650 5250 c0 -13 11 -13 30 0 12 8 11 10 -7 10 -13 0 -23 -4 -23
-10z"/>
<path d="M6927 5129 c-23 -13 -47 -62 -47 -94 0 -35 25 -82 53 -96 12 -7 50
-13 84 -13 56 0 66 4 93 29 23 22 30 38 30 67 0 45 -22 93 -49 108 -25 13
-141 13 -164 -1z"/>
<path d="M4805 4868 c-60 -66 -153 -166 -205 -222 -261 -278 -326 -350 -339
-376 -22 -45 -6 -117 34 -157 30 -30 39 -33 89 -33 32 0 69 6 84 14 29 16 528
515 604 604 l45 53 -58 56 c-32 30 -77 84 -100 119 -23 35 -42 64 -43 63 0 0
-50 -55 -111 -121z"/>
<path d="M6670 4273 c-57 -21 -83 -89 -55 -144 36 -71 88 -109 150 -109 47 0
71 14 90 50 26 51 19 86 -27 137 -57 61 -110 83 -158 66z"/>
</g>
</svg>
