<?xml version="1.0" encoding="utf-8" ?>
<svg xmlns="http://www.w3.org/2000/svg" xmlns:xlink="http://www.w3.org/1999/xlink" width="1024" height="1024">
	<path fill="#319EF6" transform="scale(2 2)" d="M376.434 146.748C374.512 144.908 369.132 140.629 369.002 137.923C368.801 133.75 384.878 119.83 387.329 119.817C389.932 119.804 394.195 125.382 396.008 127.286C389.969 134.222 382.201 139.464 376.434 146.748Z"/>
	<path fill="#B8DAFB" transform="scale(2 2)" d="M113.684 129.773C116.175 127.197 121.744 120.607 125.32 120.441C130.167 120.217 144.196 135.497 145.462 138.865L135.588 148.804C133.745 150.359 132.162 152.066 130.596 153.894L119.316 137.867C117.47 135.218 115.763 132.215 113.684 129.773Z"/>
	<path fill="#319EF6" transform="scale(2 2)" d="M113.684 129.773C115.763 132.215 117.47 135.218 119.316 137.867L130.596 153.894C128.55 155.59 120.211 163.055 119.511 165.069C117.576 167.07 113.715 171.924 110.836 172.099C107.386 172.308 94.1582 157.926 92.4929 155.499C89.5644 151.23 96.7438 146.464 99.292 143.943L113.684 129.773Z"/>
	<path fill="#B8DAFB" transform="scale(2 2)" d="M396.008 127.286C401.447 132.802 415.616 145.973 419.333 151.57C421.869 155.389 410.269 165.394 406.988 168.355C400.949 173.805 398.933 170.42 394.456 164.922L393.739 164.036C388.127 158.769 382.682 153.09 377.265 147.607L376.434 146.748C382.201 139.464 389.969 134.222 396.008 127.286Z"/>
	<path fill="#0F71E8" transform="scale(2 2)" d="M234.243 98.1767C205.714 96.3919 195.942 63.1669 216.304 45.5654C227.631 35.7732 244.858 38.3381 258.665 38.3537C265.168 38.3611 271.834 38.0601 278.315 38.5528C312.867 41.1795 317.824 94.6855 277.603 98.1767L277.603 113.606C263.348 112.048 248.486 111.808 234.243 113.606L234.243 98.1767ZM221.427 79.7213C221.454 78.2665 221.717 77.4214 222.4 76.1418C231.353 59.3871 268.738 57.6867 284.02 62.0795C287.504 63.0809 290.442 64.8196 293.586 66.5588C290.022 47.59 270.756 50.8065 256.358 50.7965C249.645 50.7919 238.031 50.164 231.862 51.3866C219.577 53.8212 213.176 69.8639 221.427 79.7213Z"/>
	<path fill="#B8DAFB" transform="scale(2 2)" d="M221.427 79.7213C221.454 78.2665 221.717 77.4214 222.4 76.1418C231.353 59.3871 268.738 57.6867 284.02 62.0795C287.504 63.0809 290.442 64.8196 293.586 66.5588C296.452 82.5462 282.163 85.8999 270.259 85.833L240.478 85.8016C233.873 85.8188 225.471 86.2313 221.427 79.7213Z"/>
	<path fill="#0F71E8" transform="scale(2 2)" d="M107.886 192.012C109.65 194.623 105.279 206.3 104.41 210.137C102.313 219.396 97.473 258.677 102.142 266.995C100.616 281.468 100.009 296.04 101.62 310.544C109.489 381.362 170.242 437.053 240.16 444.207C292.734 449.587 347.256 427.461 379.9 385.64C382.687 382.07 385.057 377.814 388.07 374.497C399.115 373.96 416.911 359.673 421.419 360.041C419.244 363.992 417.439 368.146 415.406 372.172C391.232 420.05 344.093 455.868 291.365 466.099C134.14 496.604 19.137 323.141 107.886 192.012Z"/>
	<path fill="#319EF6" transform="scale(2 2)" d="M234.243 113.606C248.486 111.808 263.348 112.048 277.603 113.606C280.173 114.355 282.864 114.533 285.496 114.967C309.326 118.896 353.664 135.422 370.767 153.894C372.43 151.513 375.157 149.614 377.265 147.607C382.682 153.09 388.127 158.769 393.739 164.036C391.867 166.184 389.836 168.238 388.07 170.469C430.31 215.765 445.053 283.775 427.224 342.82C425.472 348.622 423.194 354.25 421.419 360.041C416.911 359.673 399.115 373.96 388.07 374.497C417.868 328.64 419.534 269.962 394.912 221.671C345.723 125.192 216.412 106.922 142.577 184.669C119.532 208.935 108.363 234.44 102.142 266.995C97.473 258.677 102.313 219.396 104.41 210.137C105.279 206.3 109.65 194.623 107.886 192.012C112.796 184.338 118.732 177.424 124.568 170.469C122.971 168.586 121.231 166.837 119.511 165.069C120.211 163.055 128.55 155.59 130.596 153.894C132.162 152.066 133.745 150.359 135.588 148.804C137.49 150.514 139.373 152.257 141.339 153.894C143.958 152.372 146.211 150.109 148.598 148.246C177.119 125.988 200.722 120.926 233.949 113.672L234.243 113.606Z"/>
	<path fill="#0E57D2" transform="scale(2 2)" d="M135.588 148.804C137.49 150.514 139.373 152.257 141.339 153.894C136.187 159.797 129.513 164.326 124.568 170.469C122.971 168.586 121.231 166.837 119.511 165.069C120.211 163.055 128.55 155.59 130.596 153.894C132.162 152.066 133.745 150.359 135.588 148.804Z"/>
	<path fill="#0E57D2" transform="scale(2 2)" d="M377.265 147.607C382.682 153.09 388.127 158.769 393.739 164.036C391.867 166.184 389.836 168.238 388.07 170.469C383.191 167.025 376.435 158.495 370.767 153.894C372.43 151.513 375.157 149.614 377.265 147.607Z"/>
	<defs>
		<linearGradient id="gradient_0" gradientUnits="userSpaceOnUse" x1="228.82385" y1="442.08191" x2="284.0408" y2="138.66689">
			<stop offset="0" stop-color="#0D3E92"/>
			<stop offset="1" stop-color="#2C6BC5"/>
		</linearGradient>
	</defs>
	<path fill="url(#gradient_0)" transform="scale(2 2)" d="M102.142 266.995C108.363 234.44 119.532 208.935 142.577 184.669C216.412 106.922 345.723 125.192 394.912 221.671C419.534 269.962 417.868 328.64 388.07 374.497C385.057 377.814 382.687 382.07 379.9 385.64C347.256 427.461 292.734 449.587 240.16 444.207C170.242 437.053 109.489 381.362 101.62 310.544C100.009 296.04 100.616 281.468 102.142 266.995Z"/>
	<path fill="#B8DAFB" transform="scale(2 2)" d="M363.285 378.091Q361.801 379.907 360.256 381.672Q358.71 383.436 357.106 385.147Q355.502 386.859 353.841 388.514Q352.18 390.17 350.464 391.769Q348.747 393.367 346.978 394.907Q345.208 396.446 343.387 397.925Q341.567 399.403 339.697 400.819Q337.827 402.235 335.91 403.587Q333.993 404.938 332.032 406.224Q330.07 407.51 328.066 408.729Q326.062 409.948 324.018 411.098Q321.974 412.247 319.892 413.328Q317.81 414.408 315.693 415.416Q313.575 416.425 311.425 417.362Q309.274 418.298 307.093 419.161Q304.912 420.024 302.703 420.812Q300.494 421.601 298.26 422.314Q296.026 423.027 293.768 423.664Q291.511 424.301 289.233 424.861Q286.956 425.421 284.66 425.903Q282.365 426.386 280.055 426.79Q277.745 427.195 275.422 427.52Q273.099 427.846 270.767 428.093Q268.434 428.34 266.095 428.507Q263.755 428.675 261.411 428.763Q259.068 428.851 256.722 428.86Q254.377 428.869 252.032 428.798Q249.688 428.727 247.347 428.576Q245.007 428.426 242.673 428.196Q240.338 427.967 238.013 427.658Q235.688 427.349 233.375 426.962Q231.062 426.575 228.763 426.109Q226.464 425.643 224.183 425.1Q221.901 424.557 219.639 423.937Q217.377 423.316 215.137 422.62Q212.898 421.923 210.683 421.151Q208.468 420.378 206.281 419.532Q204.094 418.685 201.937 417.764Q199.779 416.844 197.655 415.85Q195.53 414.857 193.44 413.793Q191.35 412.728 189.297 411.593Q187.245 410.458 185.232 409.254Q183.219 408.05 181.248 406.779Q179.277 405.507 177.35 404.17Q175.424 402.832 173.544 401.43Q171.663 400.028 169.832 398.563Q168 397.098 166.219 395.571Q164.438 394.045 162.71 392.459Q160.982 390.873 159.309 389.23Q157.636 387.586 156.019 385.887Q154.403 384.188 152.845 382.434Q151.286 380.681 149.789 378.876Q148.291 377.071 146.855 375.216Q145.42 373.362 144.048 371.459Q142.676 369.557 141.369 367.609Q140.063 365.661 138.823 363.67Q137.583 361.679 136.412 359.647Q135.24 357.615 134.138 355.545Q133.036 353.474 132.005 351.368Q130.974 349.261 130.015 347.121Q129.056 344.98 128.17 342.809Q127.284 340.637 126.472 338.436Q125.66 336.236 124.924 334.009Q124.187 331.782 123.526 329.532Q122.865 327.282 122.281 325.01Q121.697 322.738 121.19 320.448Q120.684 318.158 120.255 315.852Q119.826 313.546 119.476 311.227Q119.125 308.908 118.854 306.578Q118.583 304.249 118.39 301.911Q118.198 299.574 118.085 297.231Q117.972 294.888 117.939 292.543Q117.905 290.198 117.951 287.853Q117.997 285.508 118.123 283.165Q118.249 280.823 118.454 278.487Q118.659 276.15 118.943 273.822Q119.227 271.494 119.59 269.177Q119.953 266.86 120.394 264.556Q120.835 262.252 121.354 259.965Q121.873 257.678 122.47 255.409Q123.066 253.141 123.739 250.894Q124.412 248.647 125.161 246.425Q125.91 244.202 126.733 242.006Q127.557 239.81 128.455 237.643Q129.352 235.476 130.323 233.341Q131.294 231.206 132.336 229.105Q133.379 227.004 134.492 224.939Q135.605 222.875 136.788 220.849Q137.97 218.824 139.221 216.839Q140.471 214.855 141.789 212.914Q143.106 210.974 144.488 209.079Q145.87 207.184 147.316 205.337Q148.761 203.49 150.269 201.693Q151.776 199.896 153.344 198.151Q154.911 196.407 156.537 194.716Q158.163 193.025 159.845 191.391C161.164 194.579 161.319 198.099 162.003 201.447C168.96 235.513 182.696 268.299 204.37 295.678C206.208 297.999 213.482 305.503 214.126 307.533C211.115 310.795 189.448 303.992 180.718 313.191C172.672 321.669 175.328 337.078 187.303 340.395C194.061 342.268 202.111 341.498 209.086 341.5C225.08 341.505 229.833 344.235 240.513 331.32C247.179 336.839 257.037 342.18 264.716 346.51C266.392 347.455 270.998 349.189 272.018 350.264C271.983 357.17 271.734 363.834 276.919 369.124C287.479 379.896 295.683 371.623 303.056 364.796C321.773 372.282 342.896 378.305 363.285 378.091Z"/>
	<path fill="#319EF6" transform="scale(2 2)" d="M144.086 282.859Q144.283 282.854 144.481 282.859Q144.678 282.863 144.875 282.877Q145.072 282.891 145.268 282.915Q145.464 282.938 145.658 282.971Q145.853 283.004 146.046 283.047Q146.238 283.089 146.429 283.141Q146.619 283.192 146.807 283.253Q146.995 283.314 147.18 283.383Q147.364 283.453 147.545 283.532Q147.726 283.61 147.903 283.698Q148.081 283.785 148.253 283.881Q148.426 283.977 148.593 284.08Q148.761 284.184 148.924 284.296Q149.086 284.408 149.243 284.528Q149.4 284.648 149.551 284.775Q149.702 284.902 149.847 285.036Q149.992 285.17 150.13 285.312Q150.268 285.453 150.399 285.6Q150.53 285.748 150.653 285.902Q150.777 286.055 150.893 286.215Q151.01 286.375 151.118 286.54Q151.226 286.705 151.326 286.875Q151.427 287.045 151.519 287.219Q151.61 287.394 151.694 287.573Q151.777 287.752 151.852 287.935Q151.926 288.117 151.992 288.304Q152.058 288.49 152.114 288.679Q152.171 288.868 152.218 289.059Q152.266 289.251 152.304 289.445Q152.342 289.638 152.37 289.834Q152.399 290.029 152.418 290.225Q152.437 290.422 152.447 290.619Q152.457 290.816 152.457 291.013Q152.457 291.211 152.448 291.408Q152.438 291.605 152.419 291.802Q152.4 291.998 152.372 292.193Q152.343 292.389 152.306 292.582Q152.268 292.776 152.221 292.968Q152.174 293.16 152.117 293.349Q152.061 293.538 151.995 293.724Q151.93 293.91 151.856 294.093Q151.781 294.276 151.698 294.455Q151.615 294.634 151.524 294.809Q151.432 294.984 151.332 295.154Q151.232 295.324 151.124 295.489Q151.016 295.654 150.9 295.814Q150.784 295.974 150.66 296.128Q150.537 296.282 150.406 296.429Q150.275 296.577 150.137 296.718Q149.999 296.86 149.855 296.994Q149.711 297.129 149.56 297.256Q149.409 297.383 149.252 297.503Q149.095 297.623 148.933 297.735Q148.771 297.847 148.603 297.952Q148.435 298.056 148.263 298.152Q148.09 298.248 147.913 298.335Q147.736 298.423 147.556 298.502Q147.375 298.581 147.19 298.651Q147.006 298.721 146.818 298.782Q146.63 298.843 146.44 298.894Q146.249 298.946 146.057 298.989Q145.864 299.032 145.669 299.065Q145.475 299.098 145.279 299.122Q145.083 299.146 144.886 299.16Q144.615 299.18 144.344 299.181Q144.073 299.183 143.802 299.167Q143.531 299.15 143.262 299.116Q142.993 299.082 142.727 299.03Q142.461 298.978 142.199 298.908Q141.937 298.838 141.68 298.752Q141.423 298.665 141.172 298.561Q140.921 298.457 140.678 298.337Q140.435 298.217 140.2 298.081Q139.966 297.945 139.741 297.793Q139.515 297.642 139.301 297.476Q139.086 297.31 138.883 297.131Q138.68 296.951 138.489 296.758Q138.299 296.565 138.121 296.36Q137.944 296.155 137.78 295.938Q137.617 295.722 137.468 295.495Q137.319 295.268 137.186 295.032Q137.053 294.796 136.935 294.551Q136.818 294.307 136.717 294.055Q136.616 293.803 136.532 293.545Q136.448 293.288 136.382 293.025Q136.315 292.762 136.266 292.495Q136.217 292.228 136.186 291.959Q136.154 291.69 136.141 291.419Q136.128 291.148 136.133 290.877Q136.137 290.605 136.16 290.335Q136.183 290.065 136.223 289.797Q136.264 289.529 136.322 289.264Q136.381 288.999 136.456 288.738Q136.532 288.478 136.625 288.223Q136.718 287.968 136.828 287.72Q136.937 287.472 137.063 287.232Q137.189 286.992 137.33 286.76Q137.472 286.529 137.628 286.307Q137.785 286.086 137.956 285.875Q138.127 285.665 138.311 285.466Q138.496 285.267 138.693 285.081Q138.89 284.895 139.1 284.722Q139.309 284.55 139.529 284.392Q139.749 284.233 139.979 284.09Q140.21 283.947 140.449 283.819Q140.688 283.691 140.935 283.579Q141.183 283.468 141.437 283.373Q141.691 283.278 141.95 283.2Q142.21 283.122 142.475 283.062Q142.739 283.001 143.007 282.958Q143.275 282.916 143.545 282.891Q143.815 282.866 144.086 282.859Z"/>
	<path fill="#319EF6" transform="scale(2 2)" d="M254.046 387.515C256.791 387.373 259.737 387.954 260.902 390.769C262.302 394.153 263.654 408.557 257.352 410.782C254.418 411.042 251.58 410.48 250.292 407.49C248.543 403.433 247.531 390.302 254.046 387.515Z"/>
	<path fill="#319EF6" transform="scale(2 2)" d="M143.29 317.039C149.818 316.29 150.016 322.671 151.778 327.489C161.723 354.693 183.642 378.207 210.504 389.256C213.396 390.445 216.565 391.437 219.342 392.858C223.996 395.239 222.688 400.651 218.48 402.52C213.828 402.246 209.106 399.673 204.918 397.855C180.586 387.297 161.173 368.49 148.603 345.267C145.196 338.972 134.509 321.501 143.29 317.039Z"/>
	<path fill="#FEFEFE" transform="scale(2 2)" d="M159.845 191.391Q162.191 189.112 164.642 186.946Q167.093 184.78 169.644 182.732Q172.195 180.684 174.84 178.76Q177.484 176.835 180.217 175.037Q182.95 173.24 185.765 171.573Q188.579 169.907 191.47 168.375Q194.36 166.844 197.32 165.451Q200.279 164.058 203.301 162.806Q206.323 161.555 209.401 160.448Q212.479 159.34 215.606 158.38Q218.733 157.419 221.901 156.608Q225.07 155.796 228.274 155.135Q231.477 154.474 234.708 153.966Q237.94 153.457 241.191 153.102Q244.443 152.746 247.708 152.545Q250.972 152.344 254.243 152.297Q257.514 152.251 260.783 152.359Q264.052 152.467 267.313 152.729Q270.573 152.992 273.818 153.408Q277.062 153.825 280.283 154.394Q283.504 154.963 286.695 155.684Q289.885 156.405 293.038 157.276Q296.191 158.147 299.299 159.166Q302.407 160.185 305.464 161.35Q308.52 162.515 311.518 163.823Q314.516 165.132 317.449 166.58Q320.382 168.028 323.243 169.614Q326.104 171.199 328.887 172.918Q331.67 174.637 334.369 176.486Q337.067 178.335 339.675 180.309Q342.283 182.283 344.795 184.378Q347.307 186.473 349.717 188.685Q352.127 190.897 354.43 193.22Q356.732 195.543 358.923 197.972Q361.113 200.402 363.186 202.932Q365.259 205.462 367.21 208.088Q369.161 210.713 370.986 213.428Q372.81 216.143 374.505 218.941Q376.199 221.739 377.759 224.614Q379.319 227.489 380.742 230.434Q382.164 233.38 383.446 236.389Q384.727 239.398 385.865 242.465Q387.003 245.532 387.995 248.649Q388.987 251.766 389.83 254.927Q390.673 258.087 391.366 261.284Q392.058 264.481 392.599 267.707Q393.14 270.933 393.528 274.181Q393.915 277.428 394.149 280.691Q394.383 283.954 394.462 287.224Q394.541 290.494 394.466 293.764Q394.39 297.034 394.16 300.297Q393.93 303.56 393.546 306.808Q393.162 310.057 392.625 313.283Q392.088 316.51 391.399 319.707Q390.709 322.905 389.87 326.066Q389.03 329.228 388.042 332.346Q387.054 335.464 385.92 338.532Q384.785 341.6 383.507 344.611Q382.229 347.622 380.81 350.569Q379.391 353.516 377.834 356.393Q376.277 359.27 374.586 362.07Q372.895 364.87 371.073 367.586Q369.251 370.303 367.303 372.931Q365.355 375.558 363.285 378.091C342.896 378.305 321.773 372.282 303.056 364.796C295.683 371.623 287.479 379.896 276.919 369.124C271.734 363.834 271.983 357.17 272.018 350.264C270.998 349.189 266.392 347.455 264.716 346.51C257.037 342.18 247.179 336.839 240.513 331.32C229.833 344.235 225.08 341.505 209.086 341.5C202.111 341.498 194.061 342.268 187.303 340.395C175.328 337.078 172.672 321.669 180.718 313.191C189.448 303.992 211.115 310.795 214.126 307.533C213.482 305.503 206.208 297.999 204.37 295.678C182.696 268.299 168.96 235.513 162.003 201.447C161.319 198.099 161.164 194.579 159.845 191.391Z"/>
	<path fill="#0E57D2" transform="scale(2 2)" d="M279.732 353.277C285.364 355.101 291.512 357.389 296.796 360.041C291.648 369.967 279.243 369.214 279.732 353.277Z"/>
	<path fill="#B8DAFB" transform="scale(2 2)" d="M363.499 285.732L376.434 285.732C378.17 287.059 378.982 289.029 379.702 291.018C378.861 293.639 377.762 295.161 374.927 295.773C371.19 295.787 362.815 296.663 359.861 294.503C355.65 291.425 358.529 286.464 363.499 285.732Z"/>
	<path fill="#B8DAFB" transform="scale(2 2)" d="M254.046 167.554C263.967 166.557 261.037 180.869 260.736 188.362C259.519 189.39 258.24 189.996 256.725 190.469C247.817 192.202 249.814 172.797 251.029 169.876C251.548 168.628 252.908 168.085 254.046 167.554Z"/>
	<path fill="#319EF6" transform="scale(2 2)" d="M215 248.702C218.27 244.225 231.982 230.432 236.53 230.026C239.471 229.764 251.453 230.987 254.046 231.693C254.543 232.05 254.929 232.486 255.342 232.933L255.363 233.354C253.831 233.495 253.8 234.088 252.6 234.998C247.463 238.887 223.943 247.908 217.755 246.966C216.788 247.454 215.991 248.394 215 248.702Z"/>
	<path fill="#E1F0F8" transform="scale(2 2)" d="M240.513 258.49C241.177 259.143 235.421 266.072 234.359 267.564C231.837 271.108 229.364 275.582 226.26 278.627C219.245 285.51 206.054 279.642 203.611 270.948C202.764 267.087 203.22 263.641 204.672 259.998C207.676 264.937 211.585 269.844 217.598 271.024C229.276 273.315 232.842 263.639 240.513 258.49Z"/>
	<path fill="#0F71E8" transform="scale(2 2)" d="M228.209 297.38C233.48 300.981 239.431 304.092 244.248 308.269C241.108 313.491 238.365 320.495 234.243 324.87C231.964 322.262 221.754 317.112 218.48 315.769C220.834 309.171 225.017 303.568 228.209 297.38Z"/>
	<path fill="#0E57D2" transform="scale(2 2)" d="M284.339 232.538C283.817 227.31 280.034 229.96 290.286 226.565C296.479 224.514 302.953 222.456 308.99 219.974C312.777 218.417 315.964 213.114 315.778 220.99L316.219 221.251C316.898 239.984 291.611 246.843 284.339 232.538Z"/>
	<defs>
		<linearGradient id="gradient_1" gradientUnits="userSpaceOnUse" x1="298.96741" y1="223.36612" x2="292.92017" y2="205.69177">
			<stop offset="0" stop-color="#1A5FC8"/>
			<stop offset="1" stop-color="#4F96E9"/>
		</linearGradient>
	</defs>
	<path fill="url(#gradient_1)" transform="scale(2 2)" d="M284.339 232.538C275.587 221.158 284.056 204.573 298.515 204.41C308.126 204.302 316.147 211.4 316.219 221.251L315.778 220.99C315.964 213.114 312.777 218.417 308.99 219.974C302.953 222.456 296.479 224.514 290.286 226.565C280.034 229.96 283.817 227.31 284.339 232.538Z"/>
	<path fill="#E1F0F8" transform="scale(2 2)" d="M250.505 311.7C256.962 315.676 265.768 321.686 272.018 326.192C272.212 329.418 272.057 332.68 272.032 335.912L272.018 350.264C270.998 349.189 266.392 347.455 264.716 346.51C257.037 342.18 247.179 336.839 240.513 331.32C241.207 328.063 248.416 314.828 250.505 311.7Z"/>
	<path fill="#0E57D2" transform="scale(2 2)" d="M234.243 324.87C230.92 335.78 221.629 333.956 212.519 333.91L196.464 333.961C185.873 333.907 178.416 325.309 186.003 318.363C190.245 314.479 211.604 315.374 218.48 315.769C221.754 317.112 231.964 322.262 234.243 324.87Z"/>
	<path fill="#E1F0F8" transform="scale(2 2)" d="M337.526 275.529C342.98 275.366 342.863 278.567 342.596 283.067C339.711 287.605 324.47 296.335 319.544 299.057C322.634 300.592 328.117 302.617 329.797 305.764C330.904 307.838 330.251 311.267 327.973 312.308C324.689 313.808 317.457 310.171 314.101 308.946C314.568 311.717 321.096 337.829 309.674 332.627C303.909 330.002 305.667 318.403 303.625 312.687C299.649 301.672 286.599 297.08 277.889 290.132L277.603 289.901C277.984 286.458 279.907 284.204 281.419 281.236C282.871 285.4 289.504 293.868 293.462 296.155C308.258 304.707 325.549 278.473 337.526 275.529Z"/>
	<path fill="#319EF6" transform="scale(2 2)" d="M265.364 291.018C271.859 294.915 278.216 299.74 284.428 304.141C298.281 313.954 296.883 311.235 296.806 327.673L296.792 345.618C296.81 350.423 297.432 355.251 296.796 360.041C291.512 357.389 285.364 355.101 279.732 353.277L279.732 321.592C269.863 316.061 255.688 306.397 246.637 299.646C248.732 299.256 251.253 299.744 253.418 299.7C260.544 299.554 261.087 295.288 265.364 291.018Z"/>
	<defs>
		<linearGradient id="gradient_2" gradientUnits="userSpaceOnUse" x1="278.17487" y1="294.36102" x2="264.40625" y2="230.17851">
			<stop offset="0" stop-color="#0042BB"/>
			<stop offset="1" stop-color="#317EDC"/>
		</linearGradient>
	</defs>
	<path fill="url(#gradient_2)" transform="scale(2 2)" d="M254.046 231.693C288.396 234.406 284.653 239.651 303.056 268.193C307.444 264.612 316.06 256.141 321.929 256.835C326.787 257.41 330.469 261.975 329.622 266.862C328.698 272.194 321.434 275.912 317.574 278.913C310.641 284.303 300.392 296.528 292.977 284.918C289.206 279.015 285.815 272.434 281.419 266.995C276.024 274.912 270.418 282.887 265.364 291.018C261.087 295.288 260.544 299.554 253.418 299.7C251.253 299.744 248.732 299.256 246.637 299.646C238.951 296.463 228.916 289.418 234.002 279.909C236.258 275.691 253.862 252.963 256.725 249.999C250.956 249.502 245.046 248.39 239.259 248.702L238.345 249.479C233.701 253.437 227.161 263.971 220.61 263.825C213.172 263.66 208.983 253.643 215 248.702C215.991 248.394 216.788 247.454 217.755 246.966C223.943 247.908 247.463 238.887 252.6 234.998C253.8 234.088 253.831 233.495 255.363 233.354L255.342 232.933C254.929 232.486 254.543 232.05 254.046 231.693Z"/>
</svg>
