<svg xmlns="http://www.w3.org/2000/svg" width="280" height="560" viewBox="0 0 280 560" fill="none">
  <rect width="280" height="560" rx="32" fill="#F5F7FA" stroke="#E1E4E8" stroke-width="2"/>
  <rect x="20" y="40" width="240" height="48" rx="24" fill="#FFFFFF" stroke="#E1E4E8" stroke-width="2"/>
  <rect x="32" y="52" width="110" height="24" rx="12" fill="#4C7CFF"/>
  <text x="56" y="70" fill="white" font-family="sans-serif" font-size="12" font-weight="bold">Calculate Pace</text>
  <rect x="152" y="52" width="110" height="24" rx="12" fill="#EEEEEE"/>
  <text x="168" y="70" fill="#5B5E6B" font-family="sans-serif" font-size="12" font-weight="bold">Calculate Time</text>
  
  <rect x="20" y="120" width="240" height="100" rx="16" fill="#FFFFFF" stroke="#E1E4E8" stroke-width="2"/>
  <text x="32" y="150" fill="#333333" font-family="sans-serif" font-size="18" font-weight="bold">Distance</text>
  <text x="210" y="150" fill="#4C7CFF" font-family="sans-serif" font-size="18" font-weight="bold">5K</text>
  <path d="M240 140 L235 135 L230 140 L235 145 Z" fill="#4C7CFF"/>
  
  <rect x="20" y="240" width="240" height="160" rx="16" fill="#FFFFFF" stroke="#E1E4E8" stroke-width="2"/>
  <text x="32" y="270" fill="#333333" font-family="sans-serif" font-size="18" font-weight="bold">Time</text>
  
  <text x="32" y="300" fill="#777777" font-family="sans-serif" font-size="14">Hours</text>
  <text x="110" y="300" fill="#777777" font-family="sans-serif" font-size="14">Minutes</text>
  <text x="200" y="300" fill="#777777" font-family="sans-serif" font-size="14">Seconds</text>
  
  <rect x="32" y="320" width="60" height="40" rx="8" fill="#F5F7FA" stroke="#E1E4E8"/>
  <text x="57" y="345" fill="#333333" font-family="sans-serif" font-size="18" font-weight="bold">0</text>
  
  <rect x="110" y="320" width="60" height="40" rx="8" fill="#F5F7FA" stroke="#E1E4E8"/>
  <text x="125" y="345" fill="#333333" font-family="sans-serif" font-size="18" font-weight="bold">20</text>
  
  <rect x="190" y="320" width="60" height="40" rx="8" fill="#F5F7FA" stroke="#E1E4E8"/>
  <text x="205" y="345" fill="#333333" font-family="sans-serif" font-size="18" font-weight="bold">00</text>
  
  <rect x="20" y="420" width="240" height="100" rx="16" fill="#FFFFFF" stroke="#E1E4E8" stroke-width="2"/>
  <text x="32" y="450" fill="#333333" font-family="sans-serif" font-size="18" font-weight="bold">Pace</text>
  
  <rect x="70" y="480" width="140" height="20" rx="10" fill="#F5F7FA"/>
  <text x="130" y="495" fill="#4C7CFF" font-family="sans-serif" font-size="16" font-weight="bold">4:00</text>
  <text x="170" y="495" fill="#777777" font-family="sans-serif" font-size="14">/km</text>
</svg>